<svg width="88" height="84" viewBox="0 0 88 84" fill="none" xmlns="http://www.w3.org/2000/svg">
<path fill-rule="evenodd" clip-rule="evenodd" d="M20.1349 50.1585L22.2524 50.3558C18.7304 38.1059 15.2384 12.6949 27.8722 4.78844C30.0814 15.6373 44.6518 31.9446 61.5329 45.4744L63.653 44.6028C39.1387 25.3265 28.5712 11.6244 32.2074 1.51382C32.4723 1.35417 29.4965 0.488723 27.8101 3.39394e-05C27.8101 2.26262e-05 27.8101 1.13131e-05 27.8101 0C27.8101 6.22382e-06 27.8101 1.24476e-05 27.8101 1.86715e-05C27.81 1.52611e-05 27.81 1.18549e-05 27.81 8.44457e-06C27.81 2.23241e-05 27.81 3.61232e-05 27.81 5.00028e-05C18.2552 6.68236 14.1905 20.187 20.1349 50.1585Z" fill="#297630"/>
<path fill-rule="evenodd" clip-rule="evenodd" d="M87.6161 53.1118C89.7104 65.1029 81.6874 76.5213 69.6963 78.6156C57.7053 80.7099 46.2868 72.6869 44.1926 60.6958C44.1454 60.4259 44.0977 60.1525 44.0501 59.8764C44.1356 61.1796 44.1175 62.5374 43.9872 63.9349C42.8576 76.055 32.1166 84.9645 19.9966 83.8349C7.8765 82.7053 -1.03302 71.9643 0.0965795 59.8443C0.717722 53.1797 1.53204 44.444 11.5934 45.8672C15.215 46.3795 16.9982 47.0475 18.2702 47.524C20.532 48.3713 21.1777 48.6132 27.6698 46.2976C35.5136 43.4999 41.6594 48.3285 43.5204 56.2663C42.9265 50.7359 43.6926 45.1872 51.6135 44.1893C55.2424 43.7321 57.1384 43.9082 58.4909 44.0338C60.8959 44.2571 61.5825 44.3208 67.2382 40.381C76.0746 34.2254 85.5218 41.1207 87.6161 53.1118ZM69.3299 47.0673C87.4943 34.3877 88.0559 61.6118 77.6454 69.466C80.1203 54.6618 81.3134 46.9677 69.3299 47.0673ZM26.8285 52.1985C46.1814 41.4198 43.9885 68.5612 32.8374 75.323C36.796 60.8447 38.7607 53.3106 26.8285 52.1985Z" fill="#D52323"/>
</svg>
